<svg width="40" height="40" viewBox="0 0 40 40" fill="none" xmlns="http://www.w3.org/2000/svg">
    <path d="M15.7774 35.3118C16.0632 34.2448 17.16 33.6118 18.2268 33.8976C19.2938 34.1834 19.927 35.2802 19.641 36.347L19.1234 38.279C18.8376 39.3458 17.7408 39.979 16.674 39.6932C15.607 39.4072 14.9738 38.3106 15.2597 37.2436L15.7774 35.3118ZM11.3868 31.587C12.4538 31.873 13.0869 32.9696 12.8011 34.0366L12.2834 35.9684C11.9975 37.0354 10.9009 37.6686 9.83394 37.3826C8.767 37.0968 8.13384 36 8.41972 34.9332L8.93736 33.0012C9.22324 31.9344 10.3199 31.3012 11.3868 31.587ZM26.054 31.587C27.121 31.873 27.7542 32.9696 27.4682 34.0366L26.9506 35.9684C26.6648 37.0354 25.568 37.6686 24.5012 37.3826C23.4342 37.0968 22.801 36 23.0868 34.9332L23.6046 33.0012C23.8904 31.9344 24.987 31.3012 26.054 31.587ZM20.2974 26.1702C21.3644 26.456 21.9974 27.5528 21.7116 28.6196L21.194 30.5516C20.908 31.6184 19.8114 32.2516 18.7444 31.9658C17.6776 31.6798 17.0444 30.5832 17.3302 29.5162L17.848 27.5844C18.1338 26.5174 19.2304 25.8844 20.2974 26.1702ZM19 0C24.5712 0 29.32 3.50308 31.1712 8.42396C36.26 9.81532 40 14.4692 40 20C40 23.2704 38.689 26.238 36.5688 28.4002C36.1442 28.8332 35.687 29.234 35.2012 29.599C34.318 30.2624 33.0644 30.0844 32.401 29.2012C31.7376 28.318 31.9156 27.0644 32.7988 26.401C33.1234 26.1572 33.4288 25.8892 33.7126 25.5998C35.1296 24.1546 36 22.181 36 20C36 16.029 33.1048 12.7305 29.3104 12.1065C28.5308 11.9783 27.8954 11.4066 27.6882 10.641C26.652 6.81326 23.152 4 19 4C14.0294 4 10 8.02944 10 13C10 13.3382 10.0186 13.6713 10.0546 13.9985C10.1659 15.0094 9.51018 15.9356 8.53702 16.1792C5.92936 16.8318 4 19.193 4 22C4 23.7918 4.78288 25.3982 6.03182 26.5006C6.85996 27.2314 6.93876 28.4954 6.20782 29.3234C5.4769 30.1516 4.21302 30.2304 3.38488 29.4994C1.31214 27.67 0 24.987 0 22C0 17.8972 2.46936 14.375 6.00106 12.8323C6.09086 5.72988 11.8763 0 19 0ZM13.4574 23.8596C14.5243 24.1456 15.1575 25.2422 14.8716 26.3092L14.354 28.241C14.0681 29.308 12.9714 29.941 11.9045 29.6552C10.8376 29.3694 10.2044 28.2726 10.4903 27.2058L11.0079 25.2738C11.2938 24.207 12.3905 23.5738 13.4574 23.8596ZM28.1246 23.8596C29.1916 24.1456 29.8246 25.2422 29.5388 26.3092L29.0212 28.241C28.7352 29.308 27.6386 29.9412 26.5716 29.6552C25.5048 29.3694 24.8716 28.2726 25.1574 27.2058L25.675 25.2738C25.961 24.207 27.0576 23.5738 28.1246 23.8596Z" fill="white"/>
</svg>
